<!--?xml version="1.0" standalone="no"?-->
              <svg id="sw-js-blob-svg" viewBox="0 0 100 100" xmlns="http://www.w3.org/2000/svg" version="1.1">
                    <defs> 
                        <linearGradient id="sw-gradient" x1="0" x2="1" y1="1" y2="0">
                            <stop id="stop1" stop-color="rgba(87, 143, 146, 1)" offset="0%"></stop>
                            <stop id="stop2" stop-color="rgba(87, 143, 146, 1)" offset="100%"></stop>
                        </linearGradient>
                    </defs>
                <path fill="url(#sw-gradient)" d="M13.5,-18.5C19.9,-16.9,29,-17.2,35.1,-13.3C41.2,-9.3,44.3,-1.3,42.4,5.5C40.5,12.2,33.5,17.6,27.4,22.5C21.3,27.5,16,32.1,10.1,33.3C4.2,34.5,-2.3,32.4,-7,28.8C-11.6,25.1,-14.4,20,-16.6,15.5C-18.8,10.9,-20.5,7.1,-21.5,2.8C-22.5,-1.4,-22.8,-6,-22.1,-11.1C-21.3,-16.2,-19.5,-21.8,-15.6,-24.5C-11.8,-27.2,-5.9,-26.8,-1.2,-25C3.6,-23.2,7.2,-20,13.5,-18.5Z" width="100%" height="100%" transform="translate(50 50)" stroke-width="0" style="transition: all 0.3s ease 0s;"></path>
              </svg>