<!--?xml version="1.0" standalone="no"?-->
              <svg id="sw-js-blob-svg" viewBox="0 0 100 100" xmlns="http://www.w3.org/2000/svg" version="1.1">
                    <defs> 
                        <linearGradient id="sw-gradient" x1="0" x2="1" y1="1" y2="0">
                            <stop id="stop1" stop-color="rgba(231, 218, 226, 1)" offset="0%"></stop>
                            <stop id="stop2" stop-color="rgba(231, 218, 226, 1)" offset="100%"></stop>
                        </linearGradient>
                    </defs>
                <path fill="url(#sw-gradient)" d="M18.8,-30.7C24.6,-25.5,29.7,-20.7,32.9,-14.7C36,-8.8,37.2,-1.6,36.1,5.1C35.1,11.9,31.8,18.3,26.8,22.1C21.8,25.8,15,27,8,30.4C1.1,33.8,-6.1,39.5,-12.4,39.1C-18.7,38.7,-24.2,32.2,-28.2,25.5C-32.3,18.9,-35,12.2,-34.3,5.9C-33.7,-0.3,-29.8,-6.1,-26.4,-11.5C-23,-16.9,-20.2,-21.9,-15.9,-27.8C-11.6,-33.6,-5.8,-40.2,0.4,-40.8C6.5,-41.3,13,-35.8,18.8,-30.7Z" width="100%" height="100%" transform="translate(50 50)" stroke-width="0" style="transition: all 0.3s ease 0s;" stroke="url(#sw-gradient)"></path>
              </svg>