<!--?xml version="1.0" standalone="no"?-->
              <svg id="sw-js-blob-svg" viewBox="0 0 100 100" xmlns="http://www.w3.org/2000/svg" version="1.1">
                    <defs> 
                        <linearGradient id="sw-gradient" x1="0" x2="1" y1="1" y2="0">
                            <stop id="stop1" stop-color="rgba(231, 218, 226, 1)" offset="0%"></stop>
                            <stop id="stop2" stop-color="rgba(231, 218, 226, 1)" offset="100%"></stop>
                        </linearGradient>
                    </defs>
                <path fill="url(#sw-gradient)" d="M16.3,-25.2C20.8,-22.4,23.9,-17.4,26.5,-12C29.1,-6.6,31.2,-0.9,31,4.8C30.8,10.6,28.2,16.4,24.6,22.3C21,28.2,16.4,34.1,10,37.4C3.7,40.7,-4.3,41.4,-12.5,40.1C-20.6,38.8,-28.9,35.5,-34.1,29.5C-39.3,23.6,-41.5,14.9,-40.4,7.2C-39.3,-0.5,-35,-7.2,-31.3,-13.8C-27.6,-20.4,-24.5,-26.9,-19.4,-29.3C-14.3,-31.8,-7.1,-30.3,-0.6,-29.4C5.9,-28.4,11.8,-28,16.3,-25.2Z" width="100%" height="100%" transform="translate(50 50)" stroke-width="0" style="transition: all 0.3s ease 0s;" stroke="url(#sw-gradient)"></path>
              </svg>