<!--?xml version="1.0" standalone="no"?-->
              <svg id="sw-js-blob-svg" viewBox="0 0 100 100" xmlns="http://www.w3.org/2000/svg" version="1.1">
                    <defs> 
                        <linearGradient id="sw-gradient" x1="0" x2="1" y1="1" y2="0">
                            <stop id="stop1" stop-color="rgba(216, 216, 246, 1)" offset="0%"></stop>
                            <stop id="stop2" stop-color="rgba(216, 216, 246, 1)" offset="100%"></stop>
                        </linearGradient>
                    </defs>
                <path fill="url(#sw-gradient)" d="M24.4,-29.6C29.5,-24.7,30,-15.1,31.8,-5.6C33.5,4,36.4,13.3,33.4,20.1C30.5,27,21.7,31.3,13.9,31.1C6,31,-1,26.4,-6.8,22.6C-12.5,18.7,-17.1,15.6,-19.2,11.4C-21.2,7.2,-20.7,1.8,-20.4,-4.2C-20,-10.2,-19.9,-16.9,-16.6,-22.1C-13.2,-27.2,-6.6,-30.8,1.5,-32.6C9.6,-34.4,19.3,-34.4,24.4,-29.6Z" width="100%" height="100%" transform="translate(50 50)" stroke-width="0" style="transition: all 0.3s ease 0s;" stroke="url(#sw-gradient)"></path>
              </svg>