<!--?xml version="1.0" standalone="no"?-->
              <svg id="sw-js-blob-svg" viewBox="0 0 100 100" xmlns="http://www.w3.org/2000/svg" version="1.1">
                    <defs> 
                        <linearGradient id="sw-gradient" x1="0" x2="1" y1="1" y2="0">
                            <stop id="stop1" stop-color="rgba(231, 239, 241, 1)" offset="0%"></stop>
                            <stop id="stop2" stop-color="rgba(231, 239, 241, 1)" offset="100%"></stop>
                        </linearGradient>
                    </defs>
                <path fill="url(#sw-gradient)" d="M19.7,-29.8C24.2,-23.8,25.7,-16.3,26.2,-9.7C26.7,-3.1,26.3,2.7,24.8,8.3C23.4,14,20.8,19.6,16.5,24.2C12.2,28.9,6.1,32.5,-1.1,34C-8.3,35.5,-16.7,35,-24.6,31.5C-32.4,28.1,-39.8,21.7,-41.9,13.9C-44.1,6.1,-41,-3.1,-36.2,-10C-31.5,-16.8,-25.2,-21.4,-18.9,-26.8C-12.6,-32.2,-6.3,-38.4,0.6,-39.3C7.6,-40.2,15.1,-35.7,19.7,-29.8Z" width="100%" height="100%" transform="translate(50 50)" stroke-width="0" style="transition: all 0.3s ease 0s;"></path>
              </svg>